<svg xmlns="http://www.w3.org/2000/svg" viewBox="0 0 1080 1620"><path d="M957,1526.78c-17.89,0-28.47-6.55-28.47-17.89,0-13.6,12.35-21.41,41.57-21.41,14.36,0,29.72.75,40.81,1.76-2.52,30.74-38.29,37.54-53.91,37.54m81.87,15.87c-4.28-11.59-4.78-23.18-4.78-55.42v-20.16c0-33.75-25.95-41.81-51.65-41.81a151,151,0,0,0-53.4,9.32L921.26,1458c20.4-12.09,41.82-15.11,57.94-15.11,16.37,0,31.74,5,31.74,23.18v9.82a324.54,324.54,0,0,0-46.35-3c-44.34,0-60.46,16.88-60.46,38.54,0,20.15,19.65,33.76,49.12,33.76,21.41,0,45.09-9.07,57.94-27.21.5,12.34,1.76,18.64,4,24.69Zm-156.71-55.42c0-36.78-10.33-62-54.41-62-28,0-44.85,13.6-54.17,34v-31.49H750.44v114.88h23.17v-30.48c0-35,13.61-68.52,50.64-68.52,33.76,0,34.76,24.43,34.76,52.65,0,28,1.77,37.53,5,46.35h24.19c-4.29-11.59-6-23.18-6-55.42m-211.31,102c-21.91,0-47.36-4.28-47.36-20.91,0-8.06,10.33-14.1,21.16-18.13,32,5.79,71.55,5.29,71.55,20.65,0,15.12-28.72,18.39-45.35,18.39m-9.32-148.88c24.19,0,36,14.11,36,28,0,15.62-11.34,27-30.74,27-24.68,0-37-11.84-37-27.71,0-14.11,9.83-27.21,31.74-27.21m-36,81.37c0-11.84,40.05-11.84,40.05-11.84,31.49,0,53.41-15.87,53.41-39.05,0-13.1-4.79-24.18-13.6-32.24l26.2,3.27-5-16.62H663.07c-31.49,0-54.66,19.65-54.66,43.58,0,16.37,8.06,28.21,22.92,35-13.85,2.27-26.7,7.56-26.7,19.9,0,11.59,9.57,18.39,23.18,22.68-11.34,3.27-27.46,10.33-27.46,25.19,0,20.91,23.17,32.75,67.76,32.75,41.32,0,71.29-10.84,71.29-35.52,0-47.11-113.86-31.49-113.86-47.11m-65.12-36.28c0-25.44-20.15-42.57-45.85-42.57-28.21,0-47.61,19.4-47.61,43.08,0,22.17,17.13,40.81,46.85,40.81,30.49,0,46.61-18.14,46.61-41.32m24.43-2c0,32-27.45,61.72-75.07,61.72-37,0-67.26-21.67-67.26-58.45,0-32.75,32.75-61.46,74.07-61.46,40.81,0,68.26,26.7,68.26,58.19m-168.32,59.2H393.35V1363.79h23.18Zm-74-57.19c0-25.44-20.16-42.57-45.85-42.57-28.22,0-47.62,19.4-47.62,43.08,0,22.17,17.14,40.81,46.86,40.81,30.48,0,46.61-18.14,46.61-41.32m24.43-2c0,32-27.46,61.72-75.07,61.72-37,0-67.26-21.67-67.26-58.45,0-32.75,32.75-61.46,74.06-61.46,40.81,0,68.27,26.7,68.27,58.19M65.59,1523v-66h62c32.75,0,51.89,8.81,51.89,31.49S162.83,1523,127.56,1523Zm51.89-139.56c33.26,0,48.37,7.81,48.37,24.94,0,21.91-13.85,29.47-53.41,29.47H65.59v-54.41Zm49.88,59.7c14.36-5.79,22.93-18.64,22.93-34.76,0-29.22-23.18-44.59-67.77-44.59H41.15v178.86H132.6c50.38,0,72.05-23.93,72.05-54.16,0-25.45-13.86-40.81-37.29-45.35"/><path d="M920.6,1280H897.43V1165.14H920.6ZM909,1140.2c8.81,0,15.61-6.3,15.61-13.85s-6.8-13.86-15.61-13.86-15.62,6.3-15.62,13.86,6.8,13.85,15.62,13.85M862,1280H838.81V1101.15H862Zm-74-57.18c0-25.44-20.15-42.57-45.85-42.57-28.21,0-47.61,19.39-47.61,43.07,0,22.17,17.13,40.81,46.86,40.81,30.48,0,46.6-18.13,46.6-41.31m24.44-2c0,32-27.46,61.72-75.07,61.72-37,0-67.26-21.66-67.26-58.44,0-32.75,32.75-61.47,74.06-61.47,40.81,0,68.27,26.7,68.27,58.19m-233.8,43.33c-23.68,0-37-7.81-42.83-12.09V1240c0-40.06,22.43-59.7,48.62-59.7,23.43,0,42.07,15.61,42.07,41.31,0,20.4-14.86,42.57-47.86,42.57m9.07-101.52c-21.41,0-40.31,9.07-51.9,28.72v-26.2H512.61v174.07h23.17v-69.27c10.84,7.55,27,12.59,43.33,12.59,43.33,0,71.8-28.46,71.8-62.72,0-34.52-24.94-57.19-63.23-57.19M402.9,1264.14c-17.88,0-28.46-6.55-28.46-17.88,0-13.61,12.34-21.42,41.56-21.42,14.36,0,29.73.76,40.81,1.77-2.52,30.73-38.29,37.53-53.91,37.53M484.77,1280c-4.28-11.58-4.78-23.17-4.78-55.42v-20.15c0-33.76-25.95-41.82-51.64-41.82a151.27,151.27,0,0,0-53.41,9.32l-7.81,23.43c20.41-12.09,41.82-15.11,57.94-15.11,16.38,0,31.74,5,31.74,23.17v9.83a322.63,322.63,0,0,0-46.35-3c-44.34,0-60.46,16.88-60.46,38.55,0,20.15,19.65,33.75,49.12,33.75,21.42,0,45.1-9.07,57.94-27.2.51,12.34,1.77,18.64,4,24.68ZM298.51,1245.5c-36.53-43.58-95-94.21-126.21-144.35H147.87V1280H172.3V1137.68C212.1,1189.32,270,1240,298.51,1280H323V1101.15H298.51Z"/><path d="M933.45,960.19c0-25.44-20.16-42.57-45.85-42.57C859.38,917.62,840,937,840,960.7c0,22.17,17.13,40.81,46.85,40.81,30.48,0,46.61-18.14,46.61-41.32m24.43-2c0,32-27.46,61.72-75.07,61.72-37,0-67.26-21.67-67.26-58.45,0-32.75,32.75-61.46,74.06-61.46,40.81,0,68.27,26.7,68.27,58.19M791.75,962c0-36.78-10.33-62-54.42-62-28,0-44.84,13.6-54.16,34V902.51H660v114.87h23.17V986.9c0-35,13.6-68.52,50.64-68.52,33.75,0,34.76,24.43,34.76,52.65,0,28,1.76,37.53,5,46.35h24.18c-4.28-11.59-6-23.18-6-55.42m-241.46,39.55c-17.89,0-28.47-6.55-28.47-17.89,0-13.6,12.35-21.41,41.57-21.41,14.36,0,29.72.76,40.81,1.76-2.52,30.74-38.29,37.54-53.91,37.54m81.87,15.87c-4.28-11.59-4.79-23.18-4.79-55.42V941.8c0-33.75-25.94-41.81-51.64-41.81a151,151,0,0,0-53.4,9.32l-7.81,23.43c20.4-12.1,41.82-15.12,57.94-15.12,16.37,0,31.74,5,31.74,23.18v9.82a324.54,324.54,0,0,0-46.35-3c-44.34,0-60.46,16.88-60.46,38.54,0,20.15,19.65,33.76,49.12,33.76,21.41,0,45.09-9.07,57.94-27.21.5,12.34,1.76,18.64,4,24.69Zm-158.63,0H450.36V838.52h23.17Zm-58.61,0H391.74V902.51h23.18ZM403.33,877.57c8.82,0,15.62-6.3,15.62-13.86s-6.8-13.85-15.62-13.85-15.62,6.29-15.62,13.85,6.8,13.86,15.62,13.86m-41.84,139.81c-7.56-57.94-21.41-125.71-33.25-178.86H303.8C293,879.83,268.28,939,240.32,992.94,215.38,930,190.44,877.06,171,838.52H142.83c-4,40.81-16.38,112.35-30.74,178.86h23.18c10.83-50.13,20.41-103.29,26.45-143.84,22.67,44.84,46.1,98.49,62.22,143.84h26.2c25.7-46.86,48.62-96.23,63.23-135.78,12.1,55.92,20.91,107.06,23.68,135.78Z"/><path d="M936.61,738.87c-17.89,0-28.47-6.55-28.47-17.88,0-13.61,12.35-21.42,41.57-21.42,14.36,0,29.72.76,40.81,1.77-2.52,30.73-38.29,37.53-53.91,37.53m81.87,15.87c-4.28-11.58-4.79-23.17-4.79-55.42V679.17c0-33.76-25.94-41.82-51.64-41.82a151.26,151.26,0,0,0-53.4,9.32l-7.81,23.43C921.24,658,942.65,655,958.78,655c16.37,0,31.74,5,31.74,23.17V688a324.23,324.23,0,0,0-46.35-3c-44.34,0-60.46,16.88-60.46,38.55,0,20.15,19.65,33.75,49.12,33.75,21.41,0,45.09-9.07,57.94-27.2.5,12.34,1.76,18.64,4,24.68Zm-159.81,0H835.49V639.87h23.18ZM847.08,614.93c8.82,0,15.62-6.3,15.62-13.85s-6.8-13.86-15.62-13.86-15.62,6.3-15.62,13.86,6.81,13.85,15.62,13.85m-28.56,24.94H710.45l-9.83,16.63h75.32L678.7,754.74H808.19L817,737.11H724.3ZM608.15,655c28.46,0,35.77,21.16,35.77,32.24H561.54C565.82,670.6,580.18,655,608.15,655m4.28,83.88c-39.3,0-50.64-21.16-51.9-37H668.61c3-23.17-6.55-64.49-58.45-64.49-45.59,0-74.31,31.24-74.31,61.47s21.91,58.44,72.55,58.44c31.49,0,51.64-8.31,66.5-15.36L681,716.71c-8.31,6.54-34,22.16-68.52,22.16M512,699.32c0-36.78-10.32-62-54.41-62-28,0-44.84,13.61-54.16,34V639.87H380.29V754.74h23.18V724.26c0-35,13.6-68.52,50.63-68.52,33.76,0,34.77,24.44,34.77,52.65,0,28,1.76,37.54,5,46.35h24.18c-4.28-11.58-6.05-23.17-6.05-55.42M287,655c28.46,0,35.77,21.16,35.77,32.24H240.4C244.69,670.6,259.05,655,287,655m4.28,83.88c-39.3,0-50.63-21.16-51.89-37H347.47c3-23.17-6.55-64.49-58.45-64.49-45.59,0-74.31,31.24-74.31,61.47s21.92,58.44,72.55,58.44c31.49,0,51.64-8.31,66.51-15.36l6-25.19c-8.31,6.54-34,22.16-68.52,22.16m-91.92-163c-10.58,41.07-35,100-63.23,153.92-24.69-62.72-49.63-115.62-69-153.92H38.9C66.86,625,99.36,696.55,120,754.74h25.69C182.24,688.49,213,617,222.55,575.88Z"/><path d="M824.42,476.24c-17.88,0-28.46-6.55-28.46-17.89,0-13.6,12.34-21.41,41.56-21.41,14.36,0,29.73.76,40.81,1.76-2.51,30.74-38.29,37.54-53.91,37.54m81.88,15.87c-4.29-11.59-4.79-23.18-4.79-55.42V416.54c0-33.76-26-41.82-51.64-41.82A151.09,151.09,0,0,0,796.46,384l-7.81,23.43c20.41-12.1,41.82-15.12,57.94-15.12,16.38,0,31.74,5,31.74,23.18v9.82a324.42,324.42,0,0,0-46.35-3c-44.33,0-60.46,16.88-60.46,38.54,0,20.16,19.65,33.76,49.13,33.76,21.41,0,45.09-9.07,57.94-27.21.5,12.35,1.76,18.64,4,24.69ZM749.18,436.69c0-36.78-11.59-62-50.13-62-28.47,0-44.09,13.6-51.9,35-5.54-21.66-19.14-35-47.36-35-24.68,0-40.3,13.1-49.12,33V377.24H527.5V492.11h23.17V461.63c0-35,13.6-68.27,45.6-68.52,28.21,0,30.48,24.68,30.48,52.9v46.1h23.18V456.59c0-35,13.6-63.23,45.59-63.48,28.22,0,30.48,24.43,30.48,52.65,0,28,1.77,37.53,5,46.35h24.19c-4.29-11.59-6.05-23.18-6.05-55.42M477,434.92c0-25.44-20.15-42.57-45.85-42.57-28.21,0-47.61,19.4-47.61,43.08,0,22.17,17.13,40.81,46.85,40.81,30.49,0,46.61-18.14,46.61-41.32m24.43-2c0,32-27.45,61.72-75.07,61.72-37,0-67.26-21.67-67.26-58.45,0-32.74,32.75-61.46,74.07-61.46,40.81,0,68.26,26.7,68.26,58.19m-303.23-100h51.9c35.27,0,49.37,9.07,49.37,31.49,0,21.92-14.86,30.73-51.89,30.73H198.19ZM265,410.49c36.78-1.51,59.71-17.13,59.71-46.1,0-35-21.92-51.14-69.53-51.14H173.76V492.11h24.43V414.77h4c69.28,0,92.71,55.67,124,77.34H366c-37.28-17.89-59.2-71.29-101-81.62"/><path d="M939.1,129.72c28.47,0,35.77,21.16,35.77,32.24H892.5c4.28-16.62,18.64-32.24,46.6-32.24m4.28,83.88c-39.29,0-50.63-21.16-51.89-37H999.56c3-23.17-6.55-64.49-58.44-64.49-45.6,0-74.32,31.24-74.32,61.47S888.72,232,939.35,232c31.49,0,51.65-8.31,66.51-15.36l6-25.19c-8.32,6.55-34,22.16-68.53,22.16m-81.56-99H753.75l-9.83,16.63h75.32L722,229.47H851.49l8.82-17.63H767.6ZM706.19,174.05c0-36.78-10.33-62-54.42-62-28,0-44.84,13.61-54.16,34V114.6H574.44V229.47h23.17V199c0-35,13.61-68.52,50.64-68.52,33.75,0,34.76,24.44,34.76,52.65,0,28,1.77,37.54,5,46.35h24.18c-4.28-11.58-6-23.17-6-55.42m-225-44.33c28.46,0,35.77,21.16,35.77,32.24H434.55c4.28-16.62,18.64-32.24,46.61-32.24m4.28,83.88c-39.3,0-50.64-21.16-51.9-37H541.62c3-23.17-6.55-64.49-58.45-64.49-45.6,0-74.31,31.24-74.31,61.47S430.77,232,481.41,232c31.49,0,51.64-8.31,66.5-15.36L554,191.44c-8.31,6.55-34,22.16-68.52,22.16m-87.39-96.48c-6.05-2.27-15.37-5-25.19-5-20.41,0-34,13.35-42.32,32.75V114.6H307.36V229.47h23.18V199c0-37.53,16.12-68.27,42.07-68.27,12.84,0,21.16,4.54,29.47,10.58ZM271.8,229.47H248.62V114.6H271.8ZM260.21,89.66c8.81,0,15.62-6.3,15.62-13.85S269,62,260.21,62s-15.62,6.3-15.62,13.86,6.8,13.85,15.62,13.85M227.36,70.77l-8.82-20.15H78.23V229.47h24.43V153.9H199.4V133.75H102.66v-63Z"/></svg>