<svg id="reego" xmlns="http://www.w3.org/2000/svg" xmlns:xlink="http://www.w3.org/1999/xlink" viewBox="0 0 1925 1080"><defs><style>.cls-1{fill:none;}.cls-2{clip-path:url(#clip-path);}.cls-3{fill:#fff;}.cls-4{fill:#ddd;}.cls-5{fill:#b1b1b1;}.cls-6{fill:#333;}</style><clipPath id="clip-path" transform="translate(2.5)"><rect class="cls-1" width="1920" height="1080"/></clipPath></defs><g class="cls-2"><g id="abstand"><rect class="cls-3" x="2.5" y="107.0847" width="1920" height="865.8303"/><rect class="cls-4" x="2.5" y="107.0847" width="1920" height="790.5374"/><rect class="cls-5" x="2.5" y="204.5274" width="1920" height="598.1516"/></g><g id="logo"><path class="cls-6" d="M284.8335,378.5944h47.4727l.0022,37.83c12.1322-26.3737,45.0941-44.1609,73.3151-44.1609,12.0027,0,21.6636.8314,35.2634,8.1635l-23.0532,45.34c-4.5315-2.68-13.0933-4.4036-21.7038-4.4036-39.538,0-63.8237,34.15-63.8237,81.7125v125.538H284.8335Z" transform="translate(2.5)"/><path class="cls-6" d="M506.3756,521.01c0,43.7794,40.614,72.7906,84.3947,72.7906,29.01,0,50.1089-14.77,68.57-37.45l35.8673,27.4284c-26.3725,34.2859-62.7678,51.1636-110.7672,51.1636-79.12,0-128.7022-56.9663-128.7022-131.3395,0-74.9,54.329-131.34,129.2289-131.34,88.0868,0,121.8447,67.5158,121.8447,131.8675V521.01Zm149.8-37.9779c-1.0547-41.67-24.2631-72.7906-72.2625-72.7906-46.9448,0-77.5373,39.5607-77.5373,72.7906Z" transform="translate(2.5)"/><path class="cls-6" d="M815.4765,521.01c0,43.7794,40.6141,72.7906,84.3947,72.7906,29.01,0,50.11-14.77,68.5718-37.45l35.8673,27.4284c-26.3738,34.2859-62.769,51.1636-110.7685,51.1636-79.12,0-128.7021-56.9663-128.7021-131.3395,0-74.9,54.3289-131.34,129.2288-131.34,88.0868,0,121.8447,67.5158,121.8447,131.8675V521.01Zm149.8011-37.9779c-1.0559-41.67-24.2643-72.7906-72.2638-72.7906-46.9448,0-77.5373,39.5607-77.5373,72.7906Z" transform="translate(2.5)"/><path class="cls-6" d="M1331.3423,626.5051c0,75.428-54.8543,128.7009-136.613,128.7009-47.4727,0-87.0308-12.1309-122.3727-44.8354l32.1765-40.0861c24.79,26.3738,52.745,40.6141,89.14,40.6141,70.6812,0,90.1988-44.3074,90.1988-86.5054l0-36.9179c-17.9337,30.0645-53.8033,44.3046-88.0866,44.3046-73.3185,0-127.6474-55.3862-127.1194-128.1767,0-73.8452,49.5821-131.34,127.1194-131.34,33.7579,0,69.6249,15.2975,88.0866,42.198l0-35.8673h47.47ZM1119.3014,503.6032c0,50.6368,31.6485,83.8693,82.2841,83.8693,50.6381,0,82.2866-33.2325,82.2866-83.8693s-31.6485-87.0321-82.2866-87.0321C1150.95,416.5711,1119.3014,452.9663,1119.3014,503.6032Z" transform="translate(2.5)"/><path class="cls-6" d="M1521.2333,372.2637c74.3719,0,132.9222,58.549,132.9222,131.34s-58.55,131.3395-132.9222,131.3395-132.9222-58.549-132.9222-131.3395S1446.8614,372.2637,1521.2333,372.2637Zm0,218.3716c50.6356,0,82.2841-36.3953,82.2841-87.0321s-31.6485-87.0321-82.2841-87.0321c-50.6381,0-82.284,36.3952-82.284,87.0321S1470.5952,590.6353,1521.2333,590.6353Z" transform="translate(2.5)"/></g><g id="raster"><path d="M132.9224,374.7637c-36.5552,0-70.688-13.8853-96.1114-39.0982a133.8207,133.8207,0,0,1,0-189.4824C62.2344,120.97,96.3672,107.085,132.9224,107.085S203.61,120.97,229.0332,146.1831a133.8207,133.8207,0,0,1,0,189.4824C203.61,360.8784,169.4771,374.7637,132.9224,374.7637Zm0-262.6787c-35.2276,0-68.11,13.3706-92.59,37.6484a128.82,128.82,0,0,0,0,182.3818c24.4805,24.2779,57.3628,37.6485,92.59,37.6485s68.1093-13.3706,92.59-37.6485a128.82,128.82,0,0,0,0-182.3818C201.0317,125.4556,168.1494,112.085,132.9224,112.085Zm0,218.3715c-50.712,0-84.7842-35.98-84.7842-89.5322s34.0722-89.5322,84.7842-89.5322,84.7837,35.9805,84.7837,89.5322S183.6343,330.4565,132.9224,330.4565Zm0-174.0644c-47.7212,0-79.7842,33.9707-79.7842,84.5322s32.063,84.5322,79.7842,84.5322,79.7837-33.9707,79.7837-84.5322S180.6436,156.3921,132.9224,156.3921Z" transform="translate(2.5)"/><path d="M132.9224,637.4424c-36.5552,0-70.688-13.8858-96.1114-39.0977a133.8213,133.8213,0,0,1,0-189.4829c25.4234-25.2129,59.5562-39.0981,96.1114-39.0981s70.6875,13.8852,96.1108,39.0981a133.8213,133.8213,0,0,1,0,189.4829C203.61,623.5566,169.4771,637.4424,132.9224,637.4424Zm0-262.6787c-35.2276,0-68.11,13.3706-92.59,37.6484a128.82,128.82,0,0,0,0,182.3818c24.4805,24.2784,57.3628,37.6485,92.59,37.6485s68.1093-13.37,92.59-37.6485a128.82,128.82,0,0,0,0-182.3818C201.0317,388.1343,168.1494,374.7637,132.9224,374.7637Zm0,218.372c-50.712,0-84.7842-35.98-84.7842-89.5327s34.0722-89.5317,84.7842-89.5317,84.7837,35.98,84.7837,89.5317S183.6343,593.1357,132.9224,593.1357Zm0-174.0644c-47.7212,0-79.7842,33.9707-79.7842,84.5317s32.063,84.5327,79.7842,84.5327,79.7837-33.9707,79.7837-84.5327S180.6436,419.0713,132.9224,419.0713Z" transform="translate(2.5)"/><path d="M132.9224,900.1221c-36.5547,0-70.688-13.8858-96.1114-39.0987a133.8207,133.8207,0,0,1,0-189.4824c25.4234-25.2129,59.5562-39.0986,96.1114-39.0986s70.6875,13.8857,96.1108,39.0986a133.8207,133.8207,0,0,1,0,189.4824C203.61,886.2363,169.4771,900.1221,132.9224,900.1221Zm0-262.68c-35.2276,0-68.11,13.37-92.59,37.6484a128.8213,128.8213,0,0,0,0,182.3828c24.4805,24.2784,57.3633,37.6485,92.59,37.6485s68.1093-13.37,92.59-37.6485a128.8213,128.8213,0,0,0,0-182.3828C201.0317,650.8125,168.1494,637.4424,132.9224,637.4424Zm0,218.3721c-50.712,0-84.7842-35.9805-84.7842-89.5323S82.21,676.75,132.9224,676.75s84.7837,35.9805,84.7837,89.5322S183.6343,855.8145,132.9224,855.8145Zm0-174.0645c-47.7212,0-79.7842,33.9707-79.7842,84.5322s32.063,84.5323,79.7842,84.5323,79.7837-33.9707,79.7837-84.5323S180.6436,681.75,132.9224,681.75Z" transform="translate(2.5)"/><path d="M1787.0781,637.4424c-36.5547,0-70.6885-13.8858-96.1113-39.0977a133.82,133.82,0,0,1,0-189.4829c25.4228-25.2129,59.5566-39.0981,96.1113-39.0981s70.6875,13.8852,96.11,39.0981a133.82,133.82,0,0,1,0,189.4829C1857.7656,623.5566,1823.6328,637.4424,1787.0781,637.4424Zm0-262.6787c-35.2275,0-68.11,13.3706-92.5908,37.6484a128.82,128.82,0,0,0,0,182.3818c24.48,24.2784,57.3633,37.6485,92.5908,37.6485s68.1094-13.37,92.59-37.6485a128.82,128.82,0,0,0,0-182.3818C1855.1875,388.1343,1822.3047,374.7637,1787.0781,374.7637Zm0,218.372c-50.7119,0-84.7842-35.98-84.7842-89.5327s34.0723-89.5317,84.7842-89.5317,84.7832,35.98,84.7832,89.5317S1837.79,593.1357,1787.0781,593.1357Zm0-174.0644c-47.7217,0-79.7842,33.9707-79.7842,84.5317s32.0625,84.5327,79.7842,84.5327,79.7832-33.9707,79.7832-84.5327S1834.7988,419.0713,1787.0781,419.0713Z" transform="translate(2.5)"/><path d="M960,523.5107a21.489,21.489,0,1,1,21.4893-21.4887A21.5133,21.5133,0,0,1,960,523.5107Zm0-37.978a16.489,16.489,0,1,0,16.4893,16.4893A16.5079,16.5079,0,0,0,960,485.5327Z" transform="translate(2.5)"/><path d="M960,561.4893A21.4893,21.4893,0,1,1,981.4893,540,21.5135,21.5135,0,0,1,960,561.4893Zm0-37.9786A16.4893,16.4893,0,1,0,976.4893,540,16.5079,16.5079,0,0,0,960,523.5107Z" transform="translate(2.5)"/><rect x="2.5" y="800.1787" width="1920" height="5"/><rect x="2.5" y="895.1221" width="1920" height="5"/><rect x="2.5" y="202.0273" width="1920" height="5"/><rect class="cls-5" x="268.3444" y="109.5847" width="18.9891" height="860.8306"/><rect x="2.5" y="537.5" width="1920" height="5"/><rect x="960" y="109.585" width="5" height="860.8301"/><rect x="1654.1553" y="109.585" width="5" height="860.8301"/><rect x="1920" y="109.585" width="5" height="860.8301"/><rect x="265.8442" y="109.585" width="5" height="860.8301"/><rect y="109.585" width="5" height="860.8301"/></g><rect width="1925" height="109.5847"/><rect y="970.4153" width="1925" height="109.5847"/></g></svg>