<svg xmlns="http://www.w3.org/2000/svg" viewBox="0 0 1080 1620"><path d="M196.05,249.89c-2.65-7.43-5.63-15.18-8.81-22.93H147.63c-3.61,7.11-7.65,14.76-12,22.93H125.22c18.16-31.85,31.65-60.84,37.49-75.39H173c11.89,23.47,25.91,52.67,34.4,75.39Zm-12.1-31c-5.21-12.32-10.73-24.32-15.93-34.51-4.14,9.45-9.56,20.91-16.25,34.51Z"/><path d="M294,227.06c0,12.75-9.13,22.83-30.37,22.83H225V174.5h34.3c18.8,0,28.57,6.48,28.57,18.8A15.18,15.18,0,0,1,278.23,208C288.11,209.86,294,216.34,294,227.06Zm-58.62-44.28v22.94h19.76c16.67,0,22.51-3.19,22.51-12.42,0-7.22-6.38-10.52-20.39-10.52Zm26.13,58.83c14.86,0,21.87-5,21.87-14.55s-8.07-13.27-21.87-13.27H235.33v27.82Z"/><path d="M388.77,242.57c-6.16,3.08-16.35,8.39-35.26,8.39-27.07,0-42.58-15.08-42.58-37.7,0-23.26,17.52-39.82,45.45-39.82a74.41,74.41,0,0,1,24.74,4.25l2,11.15c-7.65-4.36-16.35-6.69-27.82-6.69-20.28,0-33.77,11.57-33.77,29.52,0,19.32,14.23,30.37,33,30.37,21.87,0,33-9,36.21-11.47Z"/><path d="M483.16,211.35c0,20.7-14,38.54-47,38.54H408.94V174.5h29.3C469.57,174.18,483.16,191.38,483.16,211.35ZM434,241.61c27.07,0,38.54-12.53,38.54-29.73s-8.92-29.1-36.42-29.1H419.24v58.83Z"/><path d="M515.22,241.19h56l-3.82,8.7H504.92V174.5h57.13L566,183H515.22v23.36H557v8.49H515.22Z"/><path d="M599.11,183v26.54h40.77V218H599.11v31.85h-10.3V174.5H648l3.72,8.5Z"/><path d="M729,214.85h9.77v27.72c-6.16,3.08-16.36,8.39-35.26,8.39-27.08,0-42.58-15.08-42.58-37.7,0-23.26,17.52-39.82,45.45-39.82a74.41,74.41,0,0,1,24.74,4.25l2,11.15c-7.65-4.36-16.35-6.69-27.82-6.69-20.28,0-33.77,11.57-33.77,29.52,0,19.32,14.23,30.37,33,30.37A63.06,63.06,0,0,0,729,237.58Z"/><path d="M827.18,174.5h10.3v75.39h-10.3V215.28H774v34.61h-10.3V174.5H774V207h53.2Z"/><path d="M874,174.5v75.39h-10.3V174.5Z"/><path d="M890.36,235a43,43,0,0,0,23.78,7c14.44,0,16.78-5.53,16.78-25V174.5h10.3v49.27c0,17.31-5.63,27.19-24.85,27.19a57.68,57.68,0,0,1-23.78-4.78Z"/><path d="M93.37,346.3c27.82,8.07,35.47,30.37,52.67,39.51H129.26c-13.48-9-19.85-26.13-50.44-35.05v35.05H68.52v-75.4h10.3v36.85L122,310.41h13ZM171,377.1H223.6l-3.83,8.71h-59v-75.4H171Zm161.24,8.71c-1.16-12.11-4.88-33.67-10-57.24-6.16,16.67-15.82,37.49-26.65,57.24h-11a557.65,557.65,0,0,0-26.23-60.64c-2.55,17.1-6.59,39.51-11.15,60.64h-9.77c6.05-28,11.25-58.19,13-75.4h11.9c8.17,16.25,18.68,38.55,29.2,65.1,11.78-22.73,22.19-47.68,26.76-65.1h10.3c5,22.41,10.83,51,14,75.4Zm95.49-75.4h10.3v75.4h-10.3c-12-16.89-36.42-38.23-53.2-60v60h-10.3v-75.4h10.3c13.17,21.13,37.8,42.48,53.2,60.85Zm77.8-1.06c-28.57,0-45.45,16.57-45.45,39.82,0,22.62,16.57,37.7,42.58,37.7,27.82,0,45.66-15.93,45.66-39.72C548.35,324.54,531.68,309.46,505.56,309.35ZM503.75,378c-18.79,0-33-11.05-33-30.37,0-17.95,13.49-29.52,33.77-29.52,19.75,0,33.23,11.79,33.23,30.16C537.73,366.16,523.93,378,503.75,378Zm130.08-46c0,13.91-10.41,21.24-30.37,21.24H580.52v32.6h-10.3v-75.4h34.3C624.59,310.41,633.83,317.21,633.83,332Zm-32.5,12.95c15.61,0,21.88-3.71,21.88-12.95,0-9.45-6-13.27-20.81-13.27H580.52v26.22Zm116,44a49.16,49.16,0,0,0,18.16-3.08l-4,11.68c-18.69,0-33.34-.11-49.16-11.26-20.82-3-33.77-17.1-33.77-37.06,0-23.25,16.88-39.82,45.45-39.82,26.12.11,42.79,15.19,42.79,37.8,0,21.14-14,36-36.74,39.08A50.63,50.63,0,0,0,717.32,388.89ZM692.15,378c20.18,0,34-11.79,34-29.73,0-18.37-13.48-30.16-33.24-30.16-20.28,0-33.76,11.57-33.76,29.52C659.13,366.9,673.36,378,692.15,378Zm147.72,7.86H823.1c-13.17-9.14-23.05-32.6-52.25-32.6h-1.7v32.6h-10.3v-75.4h34.3c20.07,0,29.31,6.8,29.31,21.56,0,12.21-9.66,18.79-25.17,19.43C814.92,355.76,824.16,378.27,839.87,385.81Zm-70.72-40.89H790c15.61,0,21.88-3.71,21.88-12.95,0-9.45-6-13.27-20.81-13.27H769.15Zm143-31.32,2,10.72c-8-4.14-19.12-6.69-31.22-6.69-13.7,0-19,4.78-19,9.77,0,5.52,7.75,9.45,22.19,14,19,6.05,33.45,12.11,33.45,26.44,0,15.61-17.62,19-32.07,19a94.11,94.11,0,0,1-35.89-7.12l-2.23-11.89c9.14,6.16,22.09,10.3,36.74,10.3,14.45,0,22.83-2.34,22.83-10.3,0-6.05-6.47-9.45-25.48-15.82-17-5.74-29.84-10.3-29.84-24.64,0-10.51,11.47-18,30.26-18A97.2,97.2,0,0,1,912.17,313.6Zm28.24,72.21v-75.4H970c27.5,0,37.69,9.88,39.07,29a80.14,80.14,0,0,0-18.37-2c-8.28,0-15.71,1.39-15.71,7.33,0,9.24,37.16,7.43,37.16,26.76,0,10.51-10.3,15.4-24.31,15.4a78.24,78.24,0,0,1-22.83-3l-1.81-9.76a52.26,52.26,0,0,0,23.26,5.09c8.49,0,15.08-2.12,15.08-7.11,0-11.47-36.85-9.35-36.85-26.65,0-11.58,14.55-15,23.89-15a47.83,47.83,0,0,1,7.86.43c-2.13-8.71-12.32-12.32-27.72-12.32h-18v67.22Z"/><path d="M266.66,454.82h-37.8v66.9h-10.3v-66.9H180.33l4.25-8.49h78.15Z"/><path d="M357.87,485.72c0,22.94-11.68,37.06-37.27,37.06-23.26,0-37.27-11.15-37.27-34.94V446.33h10.3v40.45c0,16.89,8.92,27.08,28,27.08,16,0,26.44-8.6,26.44-27.08V446.33h9.77Z"/><path d="M452.26,446.33c-4,17.3-17,47.46-32.38,75.39H409.05c-8.71-24.53-22.41-54.69-34.2-75.39h11.9c8.17,16.13,18.69,38.44,29.09,64.88,11.89-22.73,22.2-47.58,26.65-64.88Z"/><path d="M604,446.33c-4.78,20.38-16.46,50.54-29.2,75.39H564a537.24,537.24,0,0,0-27.72-63.4c-5.73,19.22-15.5,43.12-25.91,63.4H499.51c-8.6-24.53-22.3-54.69-34.19-75.39h11.89c8.07,16,18.48,38.12,28.88,64.24,9.56-20.28,18.59-44.71,23.69-64.24h11.89c8.07,16,18.47,38,28.88,64.24a408.28,408.28,0,0,0,23.68-64.24Z"/><path d="M665.69,481.79c15,17.2,30.79,34.94,38.54,39.93h-16c-5.63-5-16.78-18.37-29.1-32.6l-29.41,32.6H617.9l35.57-39.19c-13.27-15.29-27.07-30.26-36.21-36.2H633.4c4.89,3.92,15.19,15.82,26.66,29l26.44-29h11.25Z"/><path d="M810.52,446.33C779.4,460.66,767,483.17,767,496.23v25.49h-11V496.23c0-12.63-18.48-36.84-45.34-49.9h19.32c13.38,7.53,27,23.57,31.75,34.72,4.78-12.64,17.2-26.44,32-34.72Z"/><path d="M837.16,513h56.18l-3.83,8.71h-73.8l59.47-66.9h-49.8l4.24-8.49h64.46Z"/><path d="M158.78,648.92,155,657.63H103.25l3.82-8.71h20.6V595.3l-22,15L109,598.7l27.18-17.52v67.74Zm74.19,0-3.82,8.71H163.74c31.85-26,53.83-42.37,53.83-56.28,0-9.66-9.34-11.89-17.31-11.89-7.22,0-14.86,2-22.83,6.69l3.51-11a57.14,57.14,0,0,1,20.71-3.92c12.95,0,25.48,7.11,25.48,19.11,0,13.7-11.36,24.42-39.5,48.63Zm11-8c6.58,5.1,17.94,9,31.32,9,13.7,0,23.36-4.24,23.36-14.54,0-9.77-8.6-14.13-22.4-14.13a56.75,56.75,0,0,0-8.18.64v-8.49c5.31-1.07,25.17-4.68,25.17-14.76,0-7.76-9.35-9.24-17.31-9.24-7.22,0-14.87,2-22.83,6.69l3.5-11a57.24,57.24,0,0,1,20.71-3.92c13,0,25.17,5.52,25.17,16.77,0,7.54-8.07,15-17.42,17.1,12.43.11,23.15,8.81,23.15,20.39,0,14.76-13.06,23.25-34.08,23.25-10.94,0-22.94-3.82-27.93-6.05Zm149.29-10.09-3.61,8.71h-17.2v18h-8v-18H316.93l55.54-59.47v50.76Zm-57.34,0h28.57V599.44Zm130.43,2.44c0,15.72-12,25.38-34.09,25.38-10.94,0-22.94-3.82-27.93-6.05l-2.23-11.57c6.59,5.09,17.95,8.91,31.33,8.91,15.82,0,23.36-5.62,23.36-16.67,0-11.68-10.3-17.09-23.36-17.09-10.94,0-21.24,3.82-26.65,6.26l9.77-40.24h41l3.83,8.49H422.51l-4.67,20.18a55.3,55.3,0,0,1,16.35-2.76C452.35,608.15,466.37,616.85,466.37,633.31Z"/><path d="M582.64,613.46v8.07h-15c.11,25.06-12.63,37.16-36.52,37.16-17.74,0-29.63-7.54-29.63-23.25,0-11.58,10.09-17.63,17.63-19.33-6.16-2.76-11.68-8.92-11.68-16.46,0-11.25,10.08-18.48,26.22-18.48,9.35,0,17.53,3.19,20.5,4.25l2,11.15a44.36,44.36,0,0,0-23.58-6.9c-10.08,0-14.86,4.35-14.86,10,0,8.39,11.68,13.81,24.53,13.81Zm-24.43,8.07H538.68c-13.81,0-26.55,4.14-26.55,13.91,0,9.23,7.54,14.33,20.07,14.33,15.18,0,26-8,26-24Z"/><path d="M678.52,631.51c0,17.73-12.85,27.29-31.43,27.18-18.37,0-32.28-13.7-32.28-32.7,0-27.19,17.3-44.81,41.83-44.81a38.69,38.69,0,0,1,17.74,4.24l2,10.83c-7.32-4.77-12.53-6.79-20.38-6.79-14.66,0-27.51,8-30.8,26.54,6.27-4.14,15.93-7.85,24.42-7.85C666.94,608.15,678.52,618.45,678.52,631.51ZM669,632.57c-.11-10.51-8.18-16.35-20.39-16.35a43,43,0,0,0-24.21,8.39V626c0,14.65,10.09,24,24.85,24C660.36,650,669,643.51,669,632.57Zm88.54-50.33-60,75.39H686.35l54.16-66.9H693.15l4.24-8.49Zm58.8,57.13c0,14.86-16,19.32-32.18,19.32-14.33,0-29.3-5.2-29.3-19.22,0-10,9.55-15.93,20-20.92-8.07-3.93-14.55-9-14.55-17.09,0-12.21,10.73-20.28,25.59-20.28s24.53,8.92,24.53,17.83c0,8.71-6.9,13.81-15.29,18C806.1,621.21,816.3,626.94,816.3,639.37Zm-9.56-.53c0-8-12-11.9-23.78-16.68-9.88,4-18.59,8.18-18.59,16,0,8.92,11,12,20.82,12C795.17,650.2,806.74,647.54,806.74,638.84ZM786,613.67c8.81-3.93,16-7.75,16-13.27,0-5.95-6.05-12.11-16.88-12.11-9.45,0-16.68,5.31-16.68,11.68C768.51,606.87,776.58,610.16,786,613.67Zm112.27.85c0,29.94-15.39,44.17-38.12,44.17-10.83,0-22-3.93-25.8-6.05L832.16,641c6.79,6.16,18.9,9,27.71,9,14.55,0,27.08-6.68,29.21-28.45-5.31,7.22-14.76,12.1-25.49,12.1-15.82,0-28.35-10.72-28.35-25.16,0-14.13,11.89-27.29,32.07-27.29C885.89,581.18,898.31,597.63,898.31,614.52Zm-9.13-4c-1.49-12.31-10-21-24-21-13.06,0-20.39,8.6-20.39,17.94,0,11.15,7.54,18.16,19.86,18.16C875.7,625.56,887.38,619.08,889.18,610.48Zm93.23,8.92c0,23.36-14,39.29-35.89,39.29-19.43,0-33.13-16.35-33.13-39.29,0-22.08,15.61-38.22,36.31-38.22C968.61,581.18,982.41,598,982.41,619.4Zm-59.47,0c0,18.27,9.77,30.58,25.17,30.58s24.74-12.31,24.74-30.58c0-17.2-9.66-29.94-24.74-29.94S922.94,602.2,922.94,619.4Z"/><path d="M121,841.75c-1-2.55-1.49-5.2-1.7-10.41-5.41,7.65-15.4,11.47-24.42,11.47-12.43,0-20.71-5.73-20.71-14.23,0-9.13,6.8-16.25,25.49-16.25a136.16,136.16,0,0,1,19.54,1.28v-4.14c0-7.65-6.48-9.77-13.39-9.77a47.88,47.88,0,0,0-24.42,6.37l3.29-9.88a63.94,63.94,0,0,1,22.52-3.92c10.83,0,21.76,3.39,21.76,17.62v8.5c0,13.59.22,18.47,2,23.36Zm-1.8-22.51c-4.68-.43-11.15-.75-17.21-.75-12.32,0-17.52,3.3-17.52,9,0,4.78,4.46,7.54,12,7.54C103,835.06,118.11,832.19,119.18,819.24Z"/><path d="M208.58,816.37c0,14.44-12,26.44-30.26,26.44a33.08,33.08,0,0,1-18.27-5.31v4.25h-9.77V766.36h9.77v38c4.89-8.28,12.85-12.1,21.88-12.1C198.07,792.27,208.58,801.82,208.58,816.37Zm-10.3.74c0-10.83-7.86-17.41-17.73-17.41-11.05,0-20.5,8.28-20.5,25.16V830c2.44,1.81,8.07,5.1,18,5.1C192,835.06,198.28,825.71,198.28,817.11Z"/><path d="M281.84,836.86a60.19,60.19,0,0,1-27,5.95c-21.34,0-30.58-11.89-30.58-24.63s12.1-25.91,31.32-25.91a53.79,53.79,0,0,1,20.07,3.61L277.49,806a43.59,43.59,0,0,0-22.73-6.26c-14.33,0-20.17,9.66-20.17,18.16,0,6.79,4,17.2,22,17.2a47.78,47.78,0,0,0,27.82-8.5Z"/><path d="M346.29,766.36h9.77v75.39h-9.77V830.17c-4.67,8.61-12.74,12.64-21.87,12.64-15.82,0-27-9.56-27-24.1s12.32-26.44,30.58-26.44a35,35,0,0,1,18.26,5.09Zm0,43.85V805c-2.33-1.91-7.64-5.31-18.05-5.31-13.91,0-20.49,9.66-20.49,18.26,0,10.83,8.49,17.1,18.05,17.1C336.84,835.06,346.29,828.16,346.29,810.21Z"/><path d="M436,825.71l-2.55,10.62a60.88,60.88,0,0,1-28,6.48c-21.35,0-30.59-11.89-30.59-24.63s12.11-25.91,31.33-25.91c21.87,0,25.91,17.41,24.63,27.18H385.26c.53,6.69,5.31,15.61,21.87,15.61A49.3,49.3,0,0,0,436,825.71Zm-50.34-12.42h34.73c0-4.67-3.08-13.59-15.08-13.59C393.54,799.7,387.49,806.28,385.68,813.29Z"/><path d="M467.55,793.33h28.14v7H467.55v41.41h-9.77V800.34H441.64v-7h16.14v-1.06c0-20,13-27,27.93-27a45.21,45.21,0,0,1,15.82,2.76l1.59,10.84c-3-2.23-10.93-6.16-18.05-6.16-8.6,0-17.52,2.65-17.52,18.47Z"/><path d="M566.09,852.79c0,10.41-12.64,15-30.05,15-18.8,0-28.57-5-28.57-13.81,0-6.26,6.8-9.24,11.58-10.62-5.74-1.8-9.77-4.67-9.77-9.55,0-5.21,5.41-7.44,11.25-8.39-6.26-2.87-9.66-7.86-9.66-14.76,0-10.09,9.77-18.37,23-18.37h26.76l2.12,7-11-1.38a17.86,17.86,0,0,1,5.74,13.6c0,9.76-9.24,16.45-22.52,16.45,0,0-16.88,0-16.88,5C518.09,839.52,566.09,832.93,566.09,852.79Zm-9.77.85c0-6.48-16.67-6.26-30.16-8.71-4.57,1.7-8.92,4.25-8.92,7.65,0,7,10.73,8.81,20,8.81C544.21,861.39,556.32,860,556.32,853.64ZM519.9,810.1c0,6.7,5.2,11.69,15.61,11.69,8.17,0,13-4.78,13-11.37,0-5.84-5-11.78-15.19-11.78C524,798.64,519.9,804.16,519.9,810.1Z"/><path d="M636.49,841.75h-10.2c-1.38-3.72-2.12-7.75-2.12-19.54S623.74,800,609.51,800c-15.61.1-21.34,14.12-21.34,28.88v12.85H578.4V766.36h9.77V806.6c3.93-8.6,11-14.33,22.83-14.33,18.58,0,22.94,10.61,22.94,26.12C633.94,832,634.68,836.86,636.49,841.75Z"/><path d="M654.43,777c0-3.18,2.86-5.84,6.58-5.84s6.58,2.66,6.58,5.84-2.86,5.85-6.58,5.85S654.43,780.16,654.43,777Zm1.69,16.36v48.42h9.77V793.33Z"/><path d="M662.49,863.2l-1.8-10.94C667.16,857.89,673,860,678,860c8.49,0,12.31-4.88,12.31-17.84V793.33h9.77v49.48c0,17.84-6.16,25-20.39,25A34.86,34.86,0,0,1,662.49,863.2ZM688.4,777c0-3.18,2.87-5.84,6.59-5.84s6.58,2.66,6.58,5.84-2.87,5.85-6.58,5.85S688.4,780.16,688.4,777Z"/><path d="M747.33,811.49c16.46,4.77,26.76,26.33,35.89,30.26H768.57c-6.9-3.72-16.25-24.42-36.1-26.44v26.44H722.7V766.36h9.77v46.51l28.77-19.54H775.9Z"/><path d="M805.52,766.36v75.39h-9.77V766.36Z"/><path d="M923.28,841.75h-10.2C911.7,838,911,834,911,822.21S910,800,898.11,800c-13.49.1-19.22,12-19.22,26.76v15h-9.77V822.32c0-11.9-1-22.3-12.85-22.3-13.48.1-19.22,14.12-19.22,28.88v12.85h-9.77V793.33h9.77v12.85c3.72-8.39,10.3-13.91,20.71-13.91,11.89,0,17.63,5.62,20,14.76,3.29-9,9.88-14.76,21.88-14.76,16.24,0,21.13,10.61,21.13,26.12C920.73,832,921.47,836.86,923.28,841.75Z"/><path d="M1000.57,841.75H990.38c-1.38-3.72-2.12-7.75-2.12-19.54S987.83,800,973.6,800c-15.61,0-21.34,14.12-21.34,28.88v12.85h-9.77V793.33h9.77V806.6c3.93-8.6,11-14.33,22.83-14.33,18.58,0,22.93,10.61,22.93,26.12C998,832,998.77,836.86,1000.57,841.75Z"/><path d="M136.91,952.71c0,13.48-11.58,26-31.65,26-15.61,0-28.35-9.13-28.35-24.63,0-13.81,13.81-25.91,31.22-25.91C125.33,928.18,136.91,939.43,136.91,952.71Zm-10.3.85c0-10.73-8.5-17.95-19.33-17.95-11.89,0-20.07,8.18-20.07,18.16,0,9.34,7.22,17.2,19.75,17.2C119.81,971,126.61,963.33,126.61,953.56Z"/><path d="M213.89,952.28c0,14.44-12,26.44-30.26,26.44a33.08,33.08,0,0,1-18.27-5.31v29.2h-9.77V929.24h9.77v11c4.89-8.28,12.85-12.1,21.88-12.1C203.38,928.18,213.89,937.73,213.89,952.28Zm-10.3.74c0-10.83-7.86-17.41-17.74-17.41-11,0-20.49,8.28-20.49,25.17v5.09c2.44,1.81,8.07,5.1,18,5.1C197.32,971,203.59,961.62,203.59,953Z"/><path d="M278.44,929.24h9.77v73.37h-9.77V966.09c-4.67,8.6-12.74,12.63-21.87,12.63-15.82,0-27-9.55-27-24.1s12.32-26.44,30.58-26.44a35,35,0,0,1,18.26,5.09Zm0,16.88v-5.2c-2.33-1.91-7.64-5.31-18.05-5.31-13.91,0-20.49,9.66-20.49,18.26,0,10.83,8.49,17.1,18,17.1C269,971,278.44,964.07,278.44,946.12Z"/><path d="M350.12,940.49c-3.51-2.54-7-4.46-12.43-4.46C326.76,936,320,949,320,964.81v12.85h-9.77V929.24H320V942c3.5-8.18,9.24-13.8,17.84-13.8a31.41,31.41,0,0,1,10.62,2.12Z"/><path d="M403,931.79l1.81,10.09a39.66,39.66,0,0,0-22.51-6.69c-7.65,0-13.28,2.12-13.28,5.73s4.89,4.88,17.95,7.54c14,2.87,22.94,6.16,22.94,16.35,0,11.36-14,13.91-23.47,13.91a75.1,75.1,0,0,1-27.29-5l-1.81-10.51c6.69,5,19.12,8.07,27.72,8.07s14.12-1.7,14.12-6.48c0-4.25-6.16-5.73-14.87-7.64-15.61-3.4-25.06-6.16-25.06-16.25,0-7.65,8.92-12.74,22.09-12.74A63.57,63.57,0,0,1,403,931.79Z"/><path d="M428.58,977.66V930.3c0-21,14.76-29.09,29.73-29.09,19.44,0,29.95,10.93,31.22,28.35a57,57,0,0,0-13.8-1.38c-6.59,0-13.81,1.59-13.81,7,0,11,30.48,10.08,30.48,29.41,0,8.39-8.71,14.12-21.66,14.12-8.6,0-14.34-1.27-19.22-3.08l-1.81-9.45c5.52,3.4,11.89,4.89,19.65,4.89,5.52,0,12-1.49,12-6.48,0-12.21-29.51-12.32-29.51-29.31,0-10.83,14-14,25.8-13.06-1.28-7.33-9-13.59-20.71-13.59-8.6,0-18.58,3.71-18.58,20.6v48.42Z"/><path d="M565.13,962.47l-2.55,10.31a50.57,50.57,0,0,1-23,5.94c-14.23,0-20.39-6.16-20.39-19.75V936.25H504v-7h15.18V916.81l9.77-7.43v19.86h28.14v7H528.92v22.08c0,8.71,3.82,12.64,12.32,12.64C549.42,971,560.35,966.51,565.13,962.47Z"/><path d="M623.21,929.24H633v48.42h-9.77V966.3c-4.78,8.49-12.74,12.42-21.87,12.42-16.14,0-23.47-9.55-23.47-24.1V929.24h9.77v24.63c0,10.83,5.2,17.21,15.08,17.21,11,0,20.49-7,20.49-25Z"/><path d="M702.21,929.24c-.21,2.65-4.67,20.49-20.28,48.42h-9.24c-6.9-18.9-16.88-38-25.7-48.42h12.53a261.54,261.54,0,0,1,19,39c7.43-13.59,12.42-28.46,13.91-39Z"/><path d="M802.13,929.24c-.22,2.65-4.15,20.49-21.35,48.42h-8.92a287.07,287.07,0,0,0-11.78-36.21C757,950.26,752,963,745.42,977.66H736.5c-5.63-16.46-13.8-36.95-23.25-48.42h12.21A267.79,267.79,0,0,1,742.13,967c6.26-13.17,11.47-27.93,12.21-37.8h8.92c3.61,7.22,8.81,20.7,14.65,39.07,8.08-14.12,13.6-30.26,14.45-39.07Z"/><path d="M851.6,951.64c9.67,10.41,20.07,21.24,27.51,26H864.77c-4.46-3.72-11.15-11.57-19-20.07l-19.85,20.07H815.6l25.28-25.27c-8.6-9.24-18-18.27-26.66-23.15h14.66c4.25,2.87,10.72,9.56,17.94,17.2L864,929.24h9.77Z"/><path d="M941.86,929.24c-.43,4.78-11.68,31.11-20.29,48.42-10.3,20.49-15.07,26-26.12,26a26.61,26.61,0,0,1-12.21-3l-2.33-10.62c4.88,4.15,8.6,5.84,14.54,5.84,8.82,0,13.7-11.57,16.89-18.26-6.91-18.9-16.89-38-25.7-48.42h12.53a270.14,270.14,0,0,1,18.37,37.38c6.37-13.49,12.85-28,14.55-37.38Z"/><path d="M965.43,970.23h39.07l-3.71,7.43H946.21l41-41.41H955.44l4.15-7h45.55Z"/><path d="M235,1064.09v49.48h-8.5v-42Z"/><path d="M307.86,1106.14l-3.72,7.43H248.82c21.24-13.38,41-24.42,41-33.55,0-6.48-7.12-8.5-14-8.5-6.16,0-12.64,1.81-20.6,6.48l3.4-10a48.74,48.74,0,0,1,18.58-3.93c10.83,0,22.19,4.88,22.19,14.86,0,9.35-8.49,15.51-26,27.19Z"/><path d="M365.83,1106.56c0,16.14-20.17,26-50.33,26.66l-5.31-7.44c28.25,1.06,46.09-8.07,46.09-19.43,0-9.77-17.31-10.83-31.12-6v-7.22c5.1-1.38,24.75-6.48,24.75-13.06s-7.12-8.5-14-8.5c-6.16,0-12.64,1.81-20.6,6.48l3.4-10a48.74,48.74,0,0,1,18.58-3.93c10.83,0,22.19,4.88,22.19,14.86,0,5.42-4.67,9.56-10.62,12.75C358.72,1092.76,365.83,1097.64,365.83,1106.56Z"/><path d="M450.46,1099.77l-3.72,7.43h-16v23.89h-8V1107.2H374l47.67-42h9v34.62Zm-57,0h29.31v-27.19Z"/><path d="M469.36,1089.15c19.75-4.46,40.67-2,40.67,16.35,0,16.67-22.3,27.08-52.46,27.72l-5.31-7.44c28.25,1.06,48.21-8.81,48.21-20.49,0-13-24.63-12.32-41.41-5l8.49-35.15h36.32l4.14,7H473.07Z"/><path d="M580.42,1091.91c0,14.12-11.89,22.72-27.71,22.72-14.87,0-27.08-10.08-27.08-27.82,0-26.76,25.49-42.26,51.82-42.26l3.19,8.18c-20.92-2.13-39.93,7-44.71,24.84,4.25-3.61,10.41-7.11,20.07-7.11C571.82,1070.46,580.42,1081,580.42,1091.91Zm-9.13,0c0-7.75-5.73-14-16.35-14a31.56,31.56,0,0,0-20.18,7.54v1.38c0,11.47,7.65,20.07,19,20.07S571.19,1100.62,571.29,1091.91Z"/><path d="M643.81,1065.15l-47.57,65.94h-9.56l43.43-58.93H589.23l4.14-7Z"/><path d="M710,1095.2c0,13.38-13.48,19.43-29.52,19.43-13.8,0-26.44-5-26.44-18.37,0-9.34,7.54-14.44,16.14-18.16-6.9-3.29-12.21-7.75-12.21-15.07,0-11.47,11.47-18.48,24.21-18.48,13.91,0,22.73,8,22.73,16.88,0,7.76-5.42,12.22-12.32,15.51C701.79,1080.44,710,1085.33,710,1095.2Zm-9.24,0c0-6.69-10.4-9.55-20.91-13.27-9,3.18-17,6.37-17,13.27,0,8.07,8.17,12.11,18.69,12.11C691.49,1107.31,700.72,1103.27,700.72,1095.2Zm-18.37-21.77c7.65-2.86,13.92-5.73,13.92-10.94,0-5.94-3.93-11.36-14.76-11.36-9.46,0-14.55,5.21-14.55,10.83C667,1067.8,674,1070.67,682.35,1073.43Z"/><path d="M777.71,1091.38c0,23.57-19.54,39.82-48.64,41.84l-5.31-7.12c24.74,0,39-9.87,43.33-24.85-4.46,4.46-11.15,8.07-20.39,8.07-13.81,0-24-8.81-24-21,0-14.65,12.32-24.21,28.35-24.21C767.51,1064.09,777.71,1076.94,777.71,1091.38Zm-9.14-.85v-.21c0-9.56-6.69-18.8-18.58-18.8-10.09,0-18.16,6.27-18.16,15.72,0,8.7,7.33,14.33,15.93,14.33C758.91,1101.57,765.92,1095.41,768.57,1090.53Z"/><path d="M853.09,1089c0,13.49-10.72,25.59-30.79,25.59-13.49,0-27.5-8.07-27.5-24.63,0-13.81,13.27-25.91,30.15-25.91C841.63,1064.09,853.09,1074.71,853.09,1089Zm-9.55.43c0-10.73-9.14-18-19.44-18-11.36,0-19.75,8.18-19.75,18.16,0,9.34,8.18,17.2,19.65,17.2C835.78,1106.88,843.54,1099.24,843.54,1089.47Z"/><path d="M149.75,1256.28l-22.51,17.2,22.51,16.78H138.07l-21.45-16.78,21.45-17.2Z"/><path d="M234.7,1297.69c-2.65-7.43-5.63-15.18-8.81-22.94H186.28c-3.61,7.12-7.65,14.76-12,22.94H163.87c18.16-31.86,31.65-60.84,37.49-75.39h10.3c11.89,23.47,25.91,52.67,34.4,75.39ZM178,1225c0-3.08,3-5.84,6.47-5.84,3.83,0,6.8,2.76,6.8,5.84s-3,5.84-6.8,5.84C181,1230.79,178,1228,178,1225Zm44.6,41.73c-5.21-12.31-10.73-24.31-15.93-34.51-4.14,9.45-9.56,20.92-16.25,34.51Zm.53-41.73c0-3.08,2.86-5.84,6.47-5.84,3.83,0,6.8,2.76,6.8,5.84s-3,5.84-6.8,5.84C226.1,1230.79,223.13,1228,223.13,1225Z"/><path d="M306.16,1297.69c-1-2.55-1.49-5.2-1.7-10.41-5.42,7.65-15.4,11.47-24.42,11.47-12.43,0-20.71-5.73-20.71-14.23,0-9.13,6.79-16.24,25.48-16.24a136.35,136.35,0,0,1,19.54,1.27v-4.14c0-7.65-6.48-9.77-13.38-9.77a47.88,47.88,0,0,0-24.42,6.37l3.29-9.87a63.63,63.63,0,0,1,22.51-3.93c10.83,0,21.77,3.4,21.77,17.62v8.5c0,13.59.21,18.48,2,23.36ZM269,1233.87c0-2.87,2.66-5.31,5.95-5.31s6.05,2.44,6.05,5.31-2.65,5.31-6.05,5.31S269,1236.74,269,1233.87Zm35.36,41.31c-4.67-.43-11.15-.74-17.2-.74-12.32,0-17.52,3.29-17.52,9,0,4.78,4.46,7.54,12,7.54C288.21,1291,303.29,1288.13,304.35,1275.18Zm-10.83-41.31c0-2.87,2.66-5.31,6-5.31s6,2.44,6,5.31-2.65,5.31-6,5.31S293.52,1236.74,293.52,1233.87Z"/><path d="M355.07,1225c0-3.08,3-5.84,6.47-5.84,3.83,0,6.8,2.76,6.8,5.84s-3,5.84-6.8,5.84C358,1230.79,355.07,1228,355.07,1225Zm50.43-3.71c-28.56,0-45.44,16.56-45.44,39.82,0,22.61,16.56,37.69,42.58,37.69,27.82,0,45.66-15.92,45.66-39.71C448.3,1236.42,431.63,1221.34,405.5,1221.24Zm-1.8,68.59c-18.79,0-33-11-33-30.37,0-17.94,13.48-29.52,33.76-29.52,19.75,0,33.24,11.79,33.24,30.16C437.68,1278,423.88,1289.83,403.7,1289.83Zm36-64.88c0-3.08,3-5.84,6.48-5.84,3.82,0,6.79,2.76,6.79,5.84s-3,5.84-6.79,5.84C442.67,1230.79,439.7,1228,439.7,1225Z"/><path d="M526.76,1273.16c0,13.49-11.57,25.59-31.64,25.59-15.61,0-27.72-9.13-27.72-24.63,0-13.81,13.17-25.81,30.59-25.81C515.19,1248.31,526.76,1259.89,526.76,1273.16Zm-10.3.43c0-10.73-8.49-17.84-19.32-17.84-11.9,0-19.44,8.07-19.44,18,0,9.34,6.59,17.2,19.12,17.2C509.67,1291,516.46,1283.36,516.46,1273.59Zm-32.38-34.41c3.39,0,6.05-2.44,6.05-5.31s-2.66-5.31-6.05-5.31-5.95,2.44-5.95,5.31S480.78,1239.18,484.08,1239.18Zm24.53,0c3.39,0,6-2.44,6-5.31s-2.66-5.31-6-5.31-5.95,2.44-5.95,5.31S505.31,1239.18,508.61,1239.18Z"/><path d="M644.39,1261.69c0,22.94-11.68,37.06-37.27,37.06-23.25,0-37.27-11.15-37.27-34.93V1222.3h10.3v40.45c0,16.89,8.92,27.08,28,27.08,16,0,26.44-8.6,26.44-27.08V1222.3h9.77Zm-49.8-30.9c3.82,0,6.8-2.76,6.8-5.84s-3-5.84-6.8-5.84c-3.5,0-6.48,2.76-6.48,5.84S591.09,1230.79,594.59,1230.79Zm24.53,0c3.82,0,6.8-2.76,6.8-5.84s-3-5.84-6.8-5.84c-3.5,0-6.48,2.76-6.48,5.84S615.62,1230.79,619.12,1230.79Z"/><path d="M713.62,1249.27h9.77v48.42h-9.77v-11.36c-4.78,8.49-12.74,12.42-21.87,12.42-16.14,0-23.47-9.55-23.47-24.1v-25.38h9.77v24.64c0,10.83,5.2,17.2,15.08,17.2,11,0,20.49-7,20.49-25Zm-36.74-15.4c0-2.87,2.66-5.31,6-5.31s6,2.44,6,5.31-2.66,5.31-6,5.31S676.88,1236.74,676.88,1233.87Zm24.53,0c0-2.87,2.65-5.31,6-5.31s6,2.44,6,5.31-2.66,5.31-6,5.31S701.41,1236.74,701.41,1233.87Z"/><path d="M780,1289h56l-3.82,8.71H769.67V1222.3H826.8l3.93,8.49H780v23.36h41.74v8.5H780Zm35.68-90.47-17.31,17.42h-9.55l14.12-17.42Z"/><path d="M910.68,1281.66l-2.54,10.62a61,61,0,0,1-28,6.47c-21.34,0-30.58-11.89-30.58-24.63s12.11-25.91,31.33-25.91c21.87,0,25.9,17.41,24.63,27.18H859.93c.53,6.69,5.31,15.61,21.87,15.61A49.32,49.32,0,0,0,910.68,1281.66Zm-50.33-12.43h34.72c0-4.67-3.07-13.59-15.07-13.59C868.21,1255.64,862.16,1262.22,860.35,1269.23Zm34.41-46.93-14.13,16.35h-9.55l12-16.35Z"/><path d="M960,1273.48l-21.45,16.78H926.82l22.51-16.78-22.51-17.2H938.5Z"/><path d="M37.1,1358.21c-14.13,14.23-22.41,33.87-22.41,51.18s8.28,37.06,22.41,51.29H28.81c-15.18-15.4-23-33.66-23-51.29s7.86-35.89,23-51.18Z"/><path d="M43.25,1427.55c0-3.82,3.51-7.11,8-7.11s8.17,3.29,8.17,7.11-3.61,7.11-8.17,7.11S43.25,1431.37,43.25,1427.55Z"/><path d="M94,1428.82c0,5.84-5.63,13.07-11.58,21.13H76.06c2.66-4.35,6.16-9.87,8.18-15.5a7.1,7.1,0,0,1-6.06-6.69c0-3.71,3.4-6.9,7.76-6.9A7.78,7.78,0,0,1,94,1428.82Z"/><path d="M112.8,1400.15c0-3.82,3.5-7.11,8-7.11s8.18,3.29,8.18,7.11-3.61,7.12-8.18,7.12S112.8,1404,112.8,1400.15Zm0,27.4c0-3.82,3.5-7.11,8-7.11s8.18,3.29,8.18,7.11-3.61,7.11-8.18,7.11S112.8,1431.37,112.8,1427.55Z"/><path d="M163.87,1428.82c0,5.84-5.63,13.07-11.57,21.13h-6.38c2.66-4.35,6.16-9.87,8.18-15.5a7.1,7.1,0,0,1-6-6.69c0-3.71,3.4-6.9,7.75-6.9A7.78,7.78,0,0,1,163.87,1428.82Zm-15.82-28.67c0-3.82,3.5-7.11,8-7.11s8.18,3.29,8.18,7.11-3.61,7.12-8.18,7.12S148.05,1404,148.05,1400.15Z"/><path d="M194,1365.11c0,5.84-5.62,13.06-11.57,21.13h-6.37c2.65-4.35,6.16-9.87,8.18-15.5a7.11,7.11,0,0,1-6.06-6.69c0-3.72,3.4-6.9,7.76-6.9A7.77,7.77,0,0,1,194,1365.11Z"/><path d="M214.83,1428.82c0-3.18,2.87-5.84,6.59-5.84s6.58,2.66,6.58,5.84-2.87,5.84-6.58,5.84S214.83,1432,214.83,1428.82Zm1.81-70.61v52.67h9.77v-52.67Z"/><path d="M295.22,1372.23c0,15.92-23.47,15.18-23.47,38.65H262c0-24.42,22.93-27.82,22.93-37.38,0-7-8.49-8.92-15.6-8.92a47.87,47.87,0,0,0-23.37,6.69l3.3-9.87a60.11,60.11,0,0,1,21.45-4.25C282.37,1357.15,295.22,1360.76,295.22,1372.23Zm-34.94,56.59c0-3.18,2.87-5.84,6.58-5.84s6.59,2.66,6.59,5.84-2.87,5.84-6.59,5.84S260.28,1432,260.28,1428.82Z"/><path d="M335.35,1358.21h8.49l-33.76,75.39h-8.5Z"/><path d="M401.93,1405.57v7.22H379.2v20.81h-7.64v-20.81H348.83v-7.22h22.73v-20.39h7.64v20.39Z"/><path d="M420.93,1411.83v-7.43h43.54v7.43Z"/><path d="M484.32,1411.83v-7.43h74.33v7.43Z"/><path d="M578.61,1411.62v-7H684.8v7Z"/><path d="M698.91,1358.21c15.18,15.29,23,33.55,23,51.18s-7.86,35.89-23,51.29h-8.28c14.12-14.23,22.4-33.87,22.4-51.29s-8.28-37-22.4-51.18Z"/><path d="M838.45,1385.18h9.77v28.88c0,8.71,2.44,12.75,7.75,12.75,8.18,0,12.64-5.84,12.64-17.42,0-24.63-21.14-44.38-48.64-44.38s-49.8,19.75-49.8,44.38c0,25.81,20.07,44.49,48.74,44.49,18.69,0,27.93-4.77,35-10l-2.55,10.62c-3.4,1.91-13.48,7.22-33.55,7.22-32.5,0-56.6-22.3-56.6-52.35,0-28.88,27.4-52.24,58.72-52.24,32.39,0,57.55,23.36,57.55,52.24,0,15.82-9.23,25.27-23.67,25.27-8.07,0-14.34-4.56-15.3-12.85-4.67,8.82-12.74,12.85-22,12.85-15.82,0-27-9.55-27-24.1s12.32-26.44,30.58-26.44a35.06,35.06,0,0,1,18.27,5.1Zm0,16.89v-5.21c-2.34-1.91-7.65-5.31-18.05-5.31-13.91,0-20.5,9.67-20.5,18.27,0,10.83,8.5,17.09,18.05,17.09C829,1426.91,838.45,1420,838.45,1402.07Z"/><path d="M895.25,1409.39c0-28.88,27.4-52.24,58.72-52.24,32.39,0,58.62,23.36,58.62,52.24s-26.23,52.35-58.62,52.35S895.25,1438.38,895.25,1409.39Zm108.42,0c0-24.63-22.2-44.38-49.7-44.38s-49.8,19.75-49.8,44.38,22.19,44.49,49.8,44.49S1003.67,1434.13,1003.67,1409.39Zm-81,.64c0-13.8,12.1-25.91,31.32-25.91a54,54,0,0,1,20.07,3.61l1.81,10.09a43.65,43.65,0,0,0-22.73-6.27c-14.76.11-20.17,9.67-20.17,18.16,0,6.8,4,17.2,22,17.2a47.86,47.86,0,0,0,27.82-8.49l-2.55,10.3a59.89,59.89,0,0,1-27,6C931.88,1434.77,922.65,1422.77,922.65,1410Z"/><path d="M1070.77,1368.72l-18,8.5,17.94,8.49-6.26,5.1-13.38-10,1.7,16.46h-7.44l1.7-16.46-13.38,10-6.26-5.1,17.94-8.49-18-8.5,6.37-5,13.49,10.09-1.81-16.67h7.44l-1.81,16.67,13.49-10.09Z"/></svg>