<svg id="reego" xmlns="http://www.w3.org/2000/svg" xmlns:xlink="http://www.w3.org/1999/xlink" viewBox="0 0 1920 1080"><defs><style>.cls-1{fill:none;}.cls-2{clip-path:url(#clip-path);}.cls-3{fill:#fff;}.cls-4{fill:#333;}</style><clipPath id="clip-path"><rect class="cls-1" width="1920" height="1080"/></clipPath></defs><g class="cls-2"><g id="abstand"><rect class="cls-3" y="109.5847" width="1920" height="860.8306"/></g><g id="logo"><path class="cls-4" d="M284.8335,378.5944h47.4727l.0022,37.83c12.1322-26.3737,45.0941-44.1609,73.3151-44.1609,12.0027,0,21.6636.8314,35.2634,8.1635l-23.0532,45.34c-4.5315-2.68-13.0933-4.4036-21.7038-4.4036-39.538,0-63.8237,34.15-63.8237,81.7125v125.538H284.8335Z"/><path class="cls-4" d="M506.3756,521.01c0,43.7794,40.614,72.7906,84.3947,72.7906,29.01,0,50.1089-14.77,68.57-37.45l35.8673,27.4284c-26.3725,34.2859-62.7678,51.1636-110.7672,51.1636-79.12,0-128.7022-56.9663-128.7022-131.3395,0-74.9,54.329-131.34,129.2289-131.34,88.0868,0,121.8447,67.5158,121.8447,131.8675V521.01Zm149.8-37.9779c-1.0547-41.67-24.2631-72.7906-72.2625-72.7906-46.9448,0-77.5373,39.5607-77.5373,72.7906Z"/><path class="cls-4" d="M815.4765,521.01c0,43.7794,40.6141,72.7906,84.3947,72.7906,29.01,0,50.11-14.77,68.5718-37.45l35.8673,27.4284c-26.3738,34.2859-62.769,51.1636-110.7685,51.1636-79.12,0-128.7021-56.9663-128.7021-131.3395,0-74.9,54.3289-131.34,129.2288-131.34,88.0868,0,121.8447,67.5158,121.8447,131.8675V521.01Zm149.8011-37.9779c-1.0559-41.67-24.2643-72.7906-72.2638-72.7906-46.9448,0-77.5373,39.5607-77.5373,72.7906Z"/><path class="cls-4" d="M1331.3423,626.5051c0,75.428-54.8543,128.7009-136.613,128.7009-47.4727,0-87.0308-12.1309-122.3727-44.8354l32.1765-40.0861c24.79,26.3738,52.745,40.6141,89.14,40.6141,70.6812,0,90.1988-44.3074,90.1988-86.5054l0-36.9179c-17.9337,30.0645-53.8033,44.3046-88.0866,44.3046-73.3185,0-127.6474-55.3862-127.1194-128.1767,0-73.8452,49.5821-131.34,127.1194-131.34,33.7579,0,69.6249,15.2975,88.0866,42.198l0-35.8673h47.47ZM1119.3014,503.6032c0,50.6368,31.6485,83.8693,82.2841,83.8693,50.6381,0,82.2866-33.2325,82.2866-83.8693s-31.6485-87.0321-82.2866-87.0321C1150.95,416.5711,1119.3014,452.9663,1119.3014,503.6032Z"/><path class="cls-4" d="M1521.2333,372.2637c74.3719,0,132.9222,58.549,132.9222,131.34s-58.55,131.3395-132.9222,131.3395-132.9222-58.549-132.9222-131.3395S1446.8614,372.2637,1521.2333,372.2637Zm0,218.3716c50.6356,0,82.2841-36.3953,82.2841-87.0321s-31.6485-87.0321-82.2841-87.0321c-50.6381,0-82.284,36.3952-82.284,87.0321S1470.5952,590.6353,1521.2333,590.6353Z"/></g><rect width="1920" height="109.5847"/><rect y="970.4153" width="1920" height="109.5847"/></g></svg>